G04 ================== begin FILE IDENTIFICATION RECORD ==================*
G04 Layout Name:  Z:/Projets_Cadence/PCB/2016/Jerome/FdC Kamar/allegro/FdC Kamar.brd*
G04 Film Name:    EPARGNE_BOT*
G04 File Format:  Gerber RS274X*
G04 File Origin:  Cadence Allegro 16.6-2015-S064*
G04 Origin Date:  Tue Feb 23 10:20:43 2016*
G04 *
G04 Layer:  VIA CLASS/SOLDERMASK_BOTTOM*
G04 Layer:  PIN/SOLDERMASK_BOTTOM*
G04 Layer:  PACKAGE GEOMETRY/SOLDERMASK_BOTTOM*
G04 Layer:  DRAWING FORMAT/TITLE_BLOCK_BOT*
G04 Layer:  BOARD GEOMETRY/OUTLINE*
G04 Layer:  BOARD GEOMETRY/SOLDERMASK_BOTTOM*
G04 *
G04 Offset:    (0.0000 0.0000)*
G04 Mirror:    No*
G04 Mode:      Positive*
G04 Rotation:  0*
G04 FullContactRelief:  No*
G04 UndefLineWidth:     0.1000*
G04 ================== end FILE IDENTIFICATION RECORD ====================*
%FSLAX35Y35*MOMM*%
%IR0*IPPOS*OFA0.00000B0.00000*MIA0B0*SFA1.00000B1.00000*%
%ADD14O,1.7X1.2*%
%ADD12O,2.2X1.8*%
%ADD10O,2.8X2.2*%
%ADD13R,2.2X1.8*%
%ADD11C,1.5*%
%ADD15C,1.9*%
%ADD16C,.1*%
G75*
%LPD*%
G75*
G54D10*
X700000Y791500D03*
Y1172500D03*
Y1553500D03*
Y1934500D03*
Y2315500D03*
Y2696500D03*
Y3077500D03*
Y3458500D03*
X2555000Y537000D03*
Y791000D03*
Y1045000D03*
X2551000Y2319000D03*
Y2065000D03*
Y2573000D03*
X6500000Y1172500D03*
Y1553500D03*
Y1934500D03*
Y2315500D03*
Y2696500D03*
Y3077500D03*
G54D11*
X1421000Y410000D03*
Y1172000D03*
X1428000Y1934000D03*
Y2696000D03*
X1805000Y410000D03*
Y1172000D03*
X1815000Y1935000D03*
Y2697000D03*
X2170000Y469000D03*
Y1169000D03*
X2141000Y1996000D03*
Y2696000D03*
X4181000Y1038000D03*
Y1800000D03*
Y2822000D03*
Y3072000D03*
X4507000Y1293000D03*
Y2055000D03*
X4518000Y2822000D03*
Y3522000D03*
X4843000Y2401000D03*
Y3417000D03*
G54D12*
X3110000Y1294000D03*
Y1548000D03*
Y1802000D03*
Y2056000D03*
Y2310000D03*
Y2564000D03*
X3872000Y1294000D03*
Y1548000D03*
Y1802000D03*
Y2056000D03*
Y2564000D03*
Y2310000D03*
Y2818000D03*
G54D13*
X3110000D03*
G54D14*
X5400000Y1530000D03*
Y1403000D03*
Y1657000D03*
X5910000Y913000D03*
Y1167000D03*
Y1040000D03*
G54D15*
X5387000Y1936000D03*
Y3460000D03*
X5908000Y1938000D03*
Y3462000D03*
G54D16*
G01X0Y0D02*
X7200000D01*
Y4250000D01*
X0D01*
Y0D01*
M02*
