M48
METRIC
T01C.6
T02C.8
T03C1.
T04C1.2
T05C1.3
T06C1.5
;LEADER: 12 
;HEADER: 
;CODE  : ASCII 
;FILE  : FdC Kamar-1-4.drl for  ... layers TOP and BOTTOM
;DESIGN: FdC Kamar.brd
;T01 Holesize 1. = 0.600000 Tolerance = +0.000000/-0.000000 PLATED MM Quantity = 6
;T02 Holesize 2. = 0.800000 Tolerance = +0.000000/-0.000000 PLATED MM Quantity = 22
;T03 Holesize 3. = 1.000000 Tolerance = +0.000000/-0.000000 PLATED MM Quantity = 14
;T04 Holesize 4. = 1.200000 Tolerance = +0.000000/-0.000000 PLATED MM Quantity = 6
;T05 Holesize 5. = 1.300000 Tolerance = +0.000000/-0.000000 PLATED MM Quantity = 4
;T06 Holesize 6. = 1.500000 Tolerance = +0.000000/-0.000000 PLATED MM Quantity = 14
%
G90
T01
X0540000Y0140300
R02Y0012700
X0591000Y0091300
R02Y0012700
T02
X0418100Y0307200
X0418100Y0282200
X0217000Y0116900
X0217000Y0046900
X0214100Y0269600
X0214100Y0199600
X0451800Y0282200
X0451800Y0352200
X0142100Y0117200
X0142100Y0041000
X0484300Y0341700
X0484300Y0240100
X0450700Y0129300
X0450700Y0205500
X0418100Y0103800
X0418100Y0180000
X0180500Y0041000
X0180500Y0117200
X0181500Y0193500
X0181500Y0269700
X0142800Y0269600
X0142800Y0193400
T03
X0311000Y0281800
R06Y-0025400
X0387200Y0129400
R06Y0025400
T04
X0255100Y0206500
R02Y0025400
X0255500Y0053700
R02Y0025400
T05
X0590800Y0346200
X0590800Y0193800
X0538700Y0346000
X0538700Y0193600
T06
X0070000Y0079150
R07Y0038100
X0650000Y0117250
R05Y0038100
M30
