G04 ================== begin FILE IDENTIFICATION RECORD ==================*
G04 Layout Name:  Z:/Projets_Cadence/PCB/2016/Jerome/FdC Kamar/allegro/FdC Kamar.brd*
G04 Film Name:    LAYER4*
G04 File Format:  Gerber RS274X*
G04 File Origin:  Cadence Allegro 16.6-2015-S064*
G04 Origin Date:  Tue Feb 23 10:20:43 2016*
G04 *
G04 Layer:  VIA CLASS/BOTTOM*
G04 Layer:  PIN/BOTTOM*
G04 Layer:  MANUFACTURING/CUIVRE_INNER*
G04 Layer:  MANUFACTURING/CUIVRE_BOT*
G04 Layer:  ETCH/BOTTOM*
G04 Layer:  DRAWING FORMAT/TITLE_BLOCK_BOT*
G04 Layer:  BOARD GEOMETRY/OUTLINE*
G04 *
G04 Offset:    (0.0000 0.0000)*
G04 Mirror:    No*
G04 Mode:      Positive*
G04 Rotation:  0*
G04 FullContactRelief:  No*
G04 UndefLineWidth:     0.1000*
G04 ================== end FILE IDENTIFICATION RECORD ====================*
%FSLAX35Y35*MOMM*%
%IR0*IPPOS*OFA0.00000B0.00000*MIA0B0*SFA1.00000B1.00000*%
%ADD12O,2.X2.*%
%ADD15O,1.5X1.*%
%ADD13O,2.X1.6*%
%ADD10O,2.6X2.*%
%ADD14R,2.X1.6*%
%ADD11C,1.5*%
%ADD16C,1.7*%
%ADD17C,.1*%
%ADD18C,.2*%
%ADD19C,.21*%
%ADD23R,2.5004X2.1004*%
%ADD21C,2.0004*%
%ADD20C,2.2004*%
%ADD24R,4.6004X2.6004*%
%ADD22C,1.9204*%
G75*
%LPD*%
G75*
G36*
G01X7175000Y25000D02*
X25000D01*
Y4225000D01*
X7175000D01*
Y25000D01*
G37*
%LPC*%
G75*
G36*
G01X2597830Y654460D02*
G02X2512170I-42830J-117460D01*
G03Y673540I-3479J9540D01*
G02X2517920Y910390I42830J117455D01*
G03X2518010Y929770I-3011J9704D01*
G02X2591990I36990J115230D01*
G03X2592080Y910390I3101J-9676D01*
G02X2597830Y673540I-37080J-119395D01*
G03Y654460I3479J-9540D01*
G37*
G36*
G01X2593830Y2182460D02*
G02X2508170I-42830J-117460D01*
G03Y2201540I-3479J9540D01*
G02X2513920Y2438390I42830J117455D01*
G03X2514010Y2457770I-3011J9704D01*
G02X2587990I36990J115230D01*
G03X2588080Y2438390I3101J-9676D01*
G02X2593830Y2201540I-37080J-119395D01*
G03Y2182460I3479J-9540D01*
G37*
G36*
G01X5981980Y966260D02*
G02X5935000Y841980I-46980J-53260D01*
G01X5885000D01*
G02X5838020Y966260I0J71020D01*
G03X5837700Y981770I-6720J7620D01*
G02X5835000Y1095930I47300J58231D01*
G03Y1111070I-6774J7570D01*
G02X5885000Y1242020I50000J55929D01*
G01X5935000D01*
G02X5985000Y1111070I0J-75021D01*
G03Y1095930I6774J-7570D01*
G02X5982300Y981770I-50000J-55929D01*
G03X5981980Y966260I6400J-7890D01*
G37*
G36*
G01X5471980Y1456260D02*
G02X5425000Y1331980I-46980J-53260D01*
G01X5375000D01*
G02X5328020Y1456260I0J71020D01*
G03X5327700Y1471770I-6720J7620D01*
G02X5325000Y1585930I47300J58231D01*
G03Y1601070I-6774J7570D01*
G02X5375000Y1732020I50000J55929D01*
G01X5425000D01*
G02X5475000Y1601070I0J-75021D01*
G03Y1585930I6774J-7570D01*
G02X5472300Y1471770I-50000J-55929D01*
G03X5471980Y1456260I6400J-7890D01*
G37*
G36*
G01X670000Y666480D02*
G02Y916520I0J125020D01*
G01X730000D01*
G02Y666480I0J-125020D01*
G01X670000D01*
G37*
G36*
G01Y1047480D02*
G02Y1297520I0J125020D01*
G01X730000D01*
G02Y1047480I0J-125020D01*
G01X670000D01*
G37*
G36*
G01Y1432480D02*
G02Y1674520I0J121020D01*
G01X730000D01*
G02Y1432480I0J-121020D01*
G01X670000D01*
G37*
G36*
G01Y1809480D02*
G02Y2059520I0J125020D01*
G01X730000D01*
G02Y1809480I0J-125020D01*
G01X670000D01*
G37*
G36*
G01Y2190480D02*
G02Y2440520I0J125020D01*
G01X730000D01*
G02Y2190480I0J-125020D01*
G01X670000D01*
G37*
G36*
G01Y2571480D02*
G02Y2821520I0J125020D01*
G01X730000D01*
G02Y2571480I0J-125020D01*
G01X670000D01*
G37*
G36*
G01Y2956480D02*
G02Y3198520I0J121020D01*
G01X730000D01*
G02Y2956480I0J-121020D01*
G01X670000D01*
G37*
G36*
G01Y3333480D02*
G02Y3583520I0J125020D01*
G01X730000D01*
G02Y3333480I0J-125020D01*
G01X670000D01*
G37*
G36*
G01X3090000Y1192980D02*
G02Y1395020I0J101020D01*
G01X3130000D01*
G02Y1192980I0J-101020D01*
G01X3090000D01*
G37*
G36*
G01Y1442980D02*
G02Y1653020I0J105020D01*
G01X3130000D01*
G02Y1442980I0J-105020D01*
G01X3090000D01*
G37*
G36*
G01Y1696980D02*
G02Y1907020I0J105020D01*
G01X3130000D01*
G02Y1696980I0J-105020D01*
G01X3090000D01*
G37*
G36*
G01Y1950980D02*
G02Y2161020I0J105020D01*
G01X3130000D01*
G02Y1950980I0J-105020D01*
G01X3090000D01*
G37*
G36*
G01Y2204980D02*
G02Y2415020I0J105020D01*
G01X3130000D01*
G02Y2204980I0J-105020D01*
G01X3090000D01*
G37*
G36*
G01Y2458980D02*
G02Y2669020I0J105020D01*
G01X3130000D01*
G02Y2458980I0J-105020D01*
G01X3090000D01*
G37*
G36*
G01X3852000Y1188980D02*
G02Y1399020I0J105020D01*
G01X3892000D01*
G02Y1188980I0J-105020D01*
G01X3852000D01*
G37*
G36*
G01Y1442980D02*
G02Y1653020I0J105020D01*
G01X3892000D01*
G02Y1442980I0J-105020D01*
G01X3852000D01*
G37*
G36*
G01Y1696980D02*
G02Y1907020I0J105020D01*
G01X3892000D01*
G02Y1696980I0J-105020D01*
G01X3852000D01*
G37*
G36*
G01Y1950980D02*
G02Y2161020I0J105020D01*
G01X3892000D01*
G02Y1950980I0J-105020D01*
G01X3852000D01*
G37*
G36*
G01Y2458980D02*
G02Y2669020I0J105020D01*
G01X3892000D01*
G02Y2458980I0J-105020D01*
G01X3852000D01*
G37*
G36*
G01Y2204980D02*
G02Y2415020I0J105020D01*
G01X3892000D01*
G02Y2204980I0J-105020D01*
G01X3852000D01*
G37*
G36*
G01Y2712980D02*
G02Y2923020I0J105020D01*
G01X3892000D01*
G02Y2712980I0J-105020D01*
G01X3852000D01*
G37*
G36*
G01X6470000Y1047480D02*
G02Y1297520I0J125020D01*
G01X6530000D01*
G02Y1047480I0J-125020D01*
G01X6470000D01*
G37*
G36*
G01Y1432480D02*
G02Y1674520I0J121020D01*
G01X6530000D01*
G02Y1432480I0J-121020D01*
G01X6470000D01*
G37*
G36*
G01Y1809480D02*
G02Y2059520I0J125020D01*
G01X6530000D01*
G02Y1809480I0J-125020D01*
G01X6470000D01*
G37*
G36*
G01Y2194480D02*
G02Y2436520I0J121020D01*
G01X6530000D01*
G02Y2194480I0J-121020D01*
G01X6470000D01*
G37*
G36*
G01Y2571480D02*
G02Y2821520I0J125020D01*
G01X6530000D01*
G02Y2571480I0J-125020D01*
G01X6470000D01*
G37*
G36*
G01Y2956480D02*
G02Y3198520I0J121020D01*
G01X6530000D01*
G02Y2956480I0J-121020D01*
G01X6470000D01*
G37*
G54D23*
X3110000Y2818000D03*
G54D21*
X4843000Y3417000D03*
Y2401000D03*
X4518000Y2822000D03*
X4507000Y2055000D03*
Y1293000D03*
X4181000Y2822000D03*
Y1800000D03*
Y1038000D03*
X2141000Y2696000D03*
X2170000Y1169000D03*
X1815000Y2697000D03*
X1805000Y1172000D03*
X1428000Y2696000D03*
Y1934000D03*
X1421000Y1172000D03*
Y410000D03*
G54D20*
X5908000Y3462000D03*
Y1938000D03*
X5387000Y3460000D03*
Y1936000D03*
G54D24*
X6663000Y3862000D03*
G54D22*
X4518000Y3522000D03*
X4181000Y3072000D03*
X2141000Y1996000D03*
X2170000Y469000D03*
X1815000Y1935000D03*
X1805000Y410000D03*
%LPD*%
G75*
G54D10*
X700000Y791500D03*
Y1172500D03*
Y1553500D03*
Y1934500D03*
Y2315500D03*
Y2696500D03*
Y3077500D03*
Y3458500D03*
X6500000Y1172500D03*
Y1553500D03*
Y1934500D03*
Y2315500D03*
Y2696500D03*
Y3077500D03*
G54D11*
X1421000Y410000D03*
Y1172000D03*
X1428000Y1934000D03*
Y2696000D03*
X1805000Y410000D03*
Y1172000D03*
X1815000Y1935000D03*
Y2697000D03*
X2170000Y469000D03*
Y1169000D03*
X2141000Y1996000D03*
Y2696000D03*
X4181000Y1038000D03*
Y1800000D03*
Y2822000D03*
Y3072000D03*
X4507000Y1293000D03*
Y2055000D03*
X4518000Y2822000D03*
Y3522000D03*
X4843000Y2401000D03*
Y3417000D03*
G54D12*
X2555000Y537000D03*
Y791000D03*
Y1045000D03*
X2551000Y2319000D03*
Y2065000D03*
Y2573000D03*
G54D13*
X3110000Y1294000D03*
Y1548000D03*
Y1802000D03*
Y2056000D03*
Y2310000D03*
Y2564000D03*
X3872000Y1294000D03*
Y1548000D03*
Y1802000D03*
Y2056000D03*
Y2564000D03*
Y2310000D03*
Y2818000D03*
G54D14*
X3110000D03*
G54D15*
X5400000Y1530000D03*
Y1403000D03*
Y1657000D03*
X5910000Y913000D03*
Y1167000D03*
Y1040000D03*
G54D16*
X5387000Y1936000D03*
Y3460000D03*
X5908000Y1938000D03*
Y3462000D03*
G54D17*
G01X0Y0D02*
X7200000D01*
Y4250000D01*
X0D01*
Y0D01*
G54D18*
G01X6663000Y3762000D02*
X6463000D01*
Y3962000D01*
X6663000D01*
Y3762000D01*
G01D02*
X6463000D01*
Y3962000D01*
X6663000D01*
Y3762000D01*
G01X6794670Y3910330D02*
X6784670Y3923330D01*
X6773000Y3929830D01*
X6759670Y3932000D01*
X6743000Y3927670D01*
X6731330Y3916830D01*
X6728000Y3903840D01*
X6729670Y3890830D01*
X6736330Y3880000D01*
X6769670Y3858330D01*
X6784670Y3843170D01*
X6794670Y3821500D01*
X6798000Y3802000D01*
X6728000D01*
G01X6863000Y3762000D02*
X6663000D01*
Y3962000D01*
X6863000D01*
Y3762000D01*
G01D02*
X6663000D01*
Y3962000D01*
X6863000D01*
Y3762000D01*
G54D19*
G01X543900Y1427400D02*
X700000Y1553500D01*
G01D02*
X856100Y1679600D01*
G01X543900D02*
X700000Y1553500D01*
G01D02*
X856100Y1427400D01*
G01X543900Y2951400D02*
X700000Y3077500D01*
G01D02*
X856100Y3203600D01*
G01X543900D02*
X700000Y3077500D01*
G01D02*
X856100Y2951400D01*
G01X1728430Y333430D02*
X1805000Y410000D01*
G01D02*
X1881570Y486570D01*
G01X1728430D02*
X1805000Y410000D01*
G01D02*
X1881570Y333430D01*
G01X1738430Y1858430D02*
X1815000Y1935000D01*
G01D02*
X1891570Y2011570D01*
G01X1738430D02*
X1815000Y1935000D01*
G01D02*
X1891570Y1858430D01*
G01X2093430Y392430D02*
X2170000Y469000D01*
G01D02*
X2246570Y545570D01*
G01X2093430D02*
X2170000Y469000D01*
G01D02*
X2246570Y392430D01*
G01X2064430Y1919430D02*
X2141000Y1996000D01*
G01D02*
X2217570Y2072570D01*
G01X2064430D02*
X2141000Y1996000D01*
G01D02*
X2217570Y1919430D01*
G01X2428900Y918900D02*
X2555000Y1045000D01*
G01X2428900Y1171100D02*
X2555000Y1045000D01*
G01X2424900Y2446900D02*
X2551000Y2573000D01*
G01X2424900Y2699100D02*
X2551000Y2573000D01*
G01X2555000Y1045000D02*
X2681100Y1171100D01*
G01X2555000Y1045000D02*
X2681100Y918900D01*
G01X2551000Y2573000D02*
X2677100Y2446900D01*
G01X2551000Y2573000D02*
X2677100Y2699100D01*
G01X2983900Y1187900D02*
X3110000Y1294000D01*
G01D02*
X3236100Y1400100D01*
G01X2983900D02*
X3110000Y1294000D01*
G01D02*
X3236100Y1187900D01*
G01X4104430Y2995430D02*
X4181000Y3072000D01*
G01D02*
X4257570Y3148570D01*
G01X4104430D02*
X4181000Y3072000D01*
G01D02*
X4257570Y2995430D01*
G01X4441430Y3445430D02*
X4518000Y3522000D01*
G01D02*
X4594570Y3598570D01*
G01X4441430D02*
X4518000Y3522000D01*
G01D02*
X4594570Y3445430D01*
G01X5298900Y1326900D02*
X5400000Y1403000D01*
G01D02*
X5501100Y1479100D01*
G01X5298900D02*
X5400000Y1403000D01*
G01D02*
X5501100Y1326900D01*
G01X5808900Y836900D02*
X5910000Y913000D01*
G01X5808900Y989100D02*
X5910000Y913000D01*
G01D02*
X6011100Y836900D01*
G01X5910000Y913000D02*
X6011100Y989100D01*
G01X6343900Y1427400D02*
X6500000Y1553500D01*
G01D02*
X6656100Y1679600D01*
G01X6343900D02*
X6500000Y1553500D01*
G01D02*
X6656100Y1427400D01*
G01X6343900Y2189400D02*
X6500000Y2315500D01*
G01D02*
X6656100Y2441600D01*
G01X6343900D02*
X6500000Y2315500D01*
G01D02*
X6656100Y2189400D01*
G01X6343900Y2951400D02*
X6500000Y3077500D01*
G01D02*
X6656100Y3203600D01*
G01X6343900D02*
X6500000Y3077500D01*
G01D02*
X6656100Y2951400D01*
M02*
