G04 ================== begin FILE IDENTIFICATION RECORD ==================*
G04 Layout Name:  Z:/Projets_Cadence/PCB/2016/Jerome/FdC Kamar/allegro/FdC Kamar.brd*
G04 Film Name:    LAYER1*
G04 File Format:  Gerber RS274X*
G04 File Origin:  Cadence Allegro 16.6-2015-S064*
G04 Origin Date:  Tue Feb 23 10:20:43 2016*
G04 *
G04 Layer:  VIA CLASS/TOP*
G04 Layer:  PIN/TOP*
G04 Layer:  MANUFACTURING/CUIVRE_TOP*
G04 Layer:  ETCH/TOP*
G04 Layer:  DRAWING FORMAT/TITLE_BLOCK_TOP*
G04 Layer:  BOARD GEOMETRY/OUTLINE*
G04 *
G04 Offset:    (0.0000 0.0000)*
G04 Mirror:    No*
G04 Mode:      Positive*
G04 Rotation:  0*
G04 FullContactRelief:  No*
G04 UndefLineWidth:     0.1000*
G04 ================== end FILE IDENTIFICATION RECORD ====================*
%FSLAX35Y35*MOMM*%
%IR0*IPPOS*OFA0.00000B0.00000*MIA0B0*SFA1.00000B1.00000*%
%ADD15O,1.5X1.*%
%ADD13O,2.X1.6*%
%ADD10O,2.6X2.*%
%ADD14R,2.X1.6*%
%ADD11C,1.5*%
%ADD16C,1.7*%
%ADD12R,1.5X1.5*%
%ADD17C,.1*%
%ADD18C,.2*%
%ADD19C,.21*%
%ADD20C,1.*%
%ADD23C,2.0004*%
%ADD21C,2.1204*%
%ADD24R,4.6004X2.6004*%
%ADD22C,1.9204*%
G75*
%LPD*%
G75*
G36*
G01X7175000Y25000D02*
X25000D01*
Y4225000D01*
X7175000D01*
Y25000D01*
G37*
%LPC*%
G75*
G36*
G01X2585000Y415980D02*
X2525000D01*
G02X2488010Y652230I0J121021D01*
G03X2487920Y671610I-3101J9676D01*
G02X2424990Y715980I37075J119395D01*
G01X1969430D01*
X1968930Y716480D01*
X830010D01*
G02X730000Y666480I-100010J75020D01*
G01X670000D01*
G02Y916520I0J125020D01*
G01X730000D01*
G02X830010Y866520I0J-125020D01*
G01X2031070D01*
X2031570Y866020D01*
X2424990D01*
G02X2482170Y908460I100017J-75014D01*
G03Y927540I-3479J9540D01*
G02X2525000Y1170020I42830J117457D01*
G01X2585000D01*
G02X2627830Y927540I0J-125023D01*
G03Y908460I3479J-9540D01*
G02X2622080Y671610I-42830J-117455D01*
G03X2621990Y652230I3011J-9704D01*
G02X2585000Y415980I-36990J-115229D01*
G37*
G36*
G01X2581000Y1943980D02*
X2521000D01*
G02X2484010Y2180230I0J121021D01*
G03X2483920Y2199610I-3101J9676D01*
G02X2420990Y2243980I37075J119395D01*
G01X1282070D01*
X1278570Y2240480D01*
X830010D01*
G02X730000Y2190480I-100010J75020D01*
G01X670000D01*
G02Y2440520I0J125020D01*
G01X730000D01*
G02X830010Y2390520I0J-125020D01*
G01X1216430D01*
X1219930Y2394020D01*
X2420990D01*
G02X2478170Y2436460I100017J-75014D01*
G03Y2455540I-3479J9540D01*
G02X2521000Y2698020I42830J117457D01*
G01X2581000D01*
G02X2623830Y2455540I0J-125023D01*
G03Y2436460I3479J-9540D01*
G02X2618080Y2199610I-42830J-117455D01*
G03X2617990Y2180230I3011J-9704D01*
G02X2581000Y1943980I-36990J-115229D01*
G37*
G36*
G01X5985000Y968930D02*
G02X5935000Y837980I-50000J-55929D01*
G01X5885000D01*
G02X5819640Y949830I0J75022D01*
G03X5810790Y964980I-8848J4991D01*
G01X5191070D01*
X5189070Y962980D01*
X4247150D01*
G02Y1113020I-66150J75020D01*
G01X5126930D01*
X5128930Y1115020D01*
X5810790D01*
G03X5819640Y1130170I2J10159D01*
G02X5834980Y1222910I65359J36828D01*
G01Y1748930D01*
X5832980Y1750930D01*
Y1857520D01*
G02X5988480Y2013020I75020J80480D01*
G01X6267570D01*
X6271070Y2009520D01*
X6369990D01*
G02X6470000Y2059520I100010J-75020D01*
G01X6530000D01*
G02Y1809480I0J-125020D01*
G01X6470000D01*
G02X6369990Y1859480I0J125020D01*
G01X6208930D01*
X6205430Y1862980D01*
X5988480D01*
G02X5983020Y1857520I-80480J75020D01*
G01Y1813070D01*
X5985020Y1811070D01*
Y1222910D01*
G02X5985000Y1111070I-50020J-55911D01*
G03Y1095930I6774J-7570D01*
G02Y984070I-50000J-55930D01*
G03Y968930I6774J-7570D01*
G37*
G36*
G01X2969410Y2337310D02*
X2946020Y2313930D01*
Y2052070D01*
X2969410Y2028690D01*
G03X2986600Y2037640I7186J7181D01*
G02X3090000Y2161020I103400J18362D01*
G01X3130000D01*
G02X3203490Y2131020I0J-105013D01*
G01X3535070D01*
X3701020Y1965070D01*
Y1624070D01*
X3704070Y1621020D01*
X3776520D01*
G02X3852000Y1653020I75480J-73019D01*
G01X3892000D01*
G02Y1442980I0J-105020D01*
G01X3852000D01*
G02X3780610Y1470980I0J105010D01*
G01X3641930D01*
X3550980Y1561930D01*
Y1902930D01*
X3472930Y1980980D01*
X3203490D01*
G02X3130000Y1950980I-73490J75013D01*
G01X3090000D01*
G02X3071640Y1952600I15J105019D01*
G03X3062690Y1935410I-1769J-10004D01*
G01X3091070Y1907020D01*
X3130000D01*
G02X3185020Y1712550I0J-105018D01*
G01Y1637450D01*
G02X3130000Y1442980I-55020J-89452D01*
G01X3090000D01*
G02X3016510Y1472980I0J105013D01*
G01X2580070D01*
X2270020Y1162930D01*
Y1068980D01*
X2069980D01*
Y1093980D01*
X1992930D01*
X1989930Y1096980D01*
X1871150D01*
G02X1738850I-66150J75020D01*
G01X1487150D01*
G02X1354850I-66150J75020D01*
G01X1243930D01*
X1243430Y1097480D01*
X830010D01*
G02X730000Y1047480I-100010J75020D01*
G01X670000D01*
G02Y1297520I0J125020D01*
G01X730000D01*
G02X830010Y1247520I0J-125020D01*
G01X1305570D01*
X1306070Y1247020D01*
X1354850D01*
G02X1487150I66150J-75020D01*
G01X1738850D01*
G02X1871150I66150J-75020D01*
G01X2052070D01*
X2055070Y1244020D01*
X2069980D01*
Y1269020D01*
X2163930D01*
X2517930Y1623020D01*
X3016510D01*
G02X3034980Y1637450I73486J-75024D01*
G01Y1712550D01*
G02X2985030Y1798920I55022J89449D01*
G01X2984970Y1800940D01*
X2795980Y1989930D01*
Y2376070D01*
X2984970Y2565060D01*
X2985030Y2567080D01*
G02X3090000Y2669020I104970J-3075D01*
G01X3130000D01*
G02X3203490Y2639020I0J-105013D01*
G01X3449070D01*
X3703070Y2385020D01*
X3778510D01*
G02X3852000Y2415020I73490J-75013D01*
G01X3892000D01*
G02Y2204980I0J-105020D01*
G01X3852000D01*
G02X3778510Y2234980I0J105013D01*
G01X3640930D01*
X3386930Y2488980D01*
X3203490D01*
G02X3130000Y2458980I-73490J75013D01*
G01X3091070D01*
X3062690Y2430590D01*
G03X3071640Y2413400I7181J-7186D01*
G02X3090000Y2415020I18375J-103399D01*
G01X3130000D01*
G02Y2204980I0J-105020D01*
G01X3090000D01*
G02X2986600Y2328360I0J105018D01*
G03X2969410Y2337310I-10004J1769D01*
G37*
G36*
G01X4230930Y1369020D02*
X4596980Y1735070D01*
Y1979050D01*
G03X4579460Y1986050I-10159J-1D01*
G02X4440850Y1979980I-72457J68950D01*
G01X4329930D01*
X4328930Y1980980D01*
X3965490D01*
G02X3892000Y1950980I-73490J75013D01*
G01X3852000D01*
G02Y2161020I0J105020D01*
G01X3892000D01*
G02X3965490Y2131020I0J-105013D01*
G01X4391070D01*
X4392070Y2130020D01*
X4440850D01*
G02X4587800Y2113960I66154J-75019D01*
G01X4589320Y2111870D01*
X4596980D01*
Y2122930D01*
X4230930Y2488980D01*
X3965490D01*
G02X3892000Y2458980I-73490J75013D01*
G01X3852000D01*
G02X3778510Y2488980I0J105013D01*
G01X3659930D01*
X3405930Y2742980D01*
X3235020D01*
Y2712980D01*
X2984980D01*
Y2742980D01*
X2341070D01*
X2241020Y2642930D01*
Y2595980D01*
X2040980D01*
Y2620980D01*
X1963930D01*
X1962930Y2621980D01*
X1881150D01*
G02X1748850I-66150J75020D01*
G01X1700070D01*
X1699070Y2620980D01*
X1494150D01*
G02X1361850I-66150J75020D01*
G01X1250930D01*
X1250430Y2621480D01*
X830010D01*
G02X730000Y2571480I-100010J75020D01*
G01X670000D01*
G02Y2821520I0J125020D01*
G01X730000D01*
G02X830010Y2771520I0J-125020D01*
G01X1312570D01*
X1313070Y2771020D01*
X1361850D01*
G02X1494150I66150J-75020D01*
G01X1636930D01*
X1637930Y2772020D01*
X1748850D01*
G02X1881150I66150J-75020D01*
G01X2025070D01*
X2026070Y2771020D01*
X2040980D01*
Y2796020D01*
X2181930D01*
X2278930Y2893020D01*
X2984980D01*
Y2923020D01*
X3235020D01*
Y2893020D01*
X3468070D01*
X3722070Y2639020D01*
X3778510D01*
G02X3852000Y2669020I73490J-75013D01*
G01X3892000D01*
G02X3965490Y2639020I0J-105013D01*
G01X4293070D01*
X4747020Y2185070D01*
Y1672930D01*
X4483200Y1409100D01*
G03X4491910Y1391880I7185J-7178D01*
G02X4573150Y1368020I15084J-98877D01*
G01X4681930D01*
X4918930Y1605020D01*
X5300790D01*
G03X5309640Y1620170I2J10159D01*
G02X5324980Y1712910I65359J36828D01*
G01Y1845130D01*
G02X5311980Y2016480I62020J90873D01*
G01Y2527070D01*
X5556430Y2771520D01*
X6369990D01*
G02X6470000Y2821520I100010J-75020D01*
G01X6530000D01*
G02Y2571480I0J-125020D01*
G01X6470000D01*
G02X6369990Y2621480I0J125020D01*
G01X5618570D01*
X5462020Y2464930D01*
Y2016480D01*
G02X5475020Y1869990I-75019J-80479D01*
G01Y1712910D01*
G02X5475000Y1601070I-50020J-55911D01*
G03Y1585930I6774J-7570D01*
G02Y1474070I-50000J-55930D01*
G03Y1458930I6774J-7570D01*
G02X5425000Y1327980I-50000J-55929D01*
G01X5375000D01*
G02X5309640Y1439830I0J75022D01*
G03X5300790Y1454980I-8848J4991D01*
G01X4981070D01*
X4744070Y1217980D01*
X4573150D01*
G02X4408120Y1308090I-66154J75020D01*
G03X4390900Y1316800I-10042J1525D01*
G01X4293070Y1218980D01*
X3965490D01*
G02X3892000Y1188980I-73490J75013D01*
G01X3852000D01*
G02Y1399020I0J105020D01*
G01X3892000D01*
G02X3965490Y1369020I0J-105013D01*
G01X4230930D01*
G37*
G36*
G01X3965490Y1726980D02*
G02X3892000Y1696980I-73490J75013D01*
G01X3852000D01*
G02Y1907020I0J105020D01*
G01X3892000D01*
G02X3965490Y1877020I0J-105013D01*
G01X4117190D01*
G02X4112650Y1726980I63811J-77020D01*
G01X3965490D01*
G37*
G36*
G01X4764020Y2586070D02*
X4849250Y2500840D01*
X4851110Y2500690D01*
G02X4743310Y2392890I-8110J-99690D01*
G01X4743160Y2394750D01*
X4613980Y2523930D01*
Y2619930D01*
X4511930Y2721980D01*
X4417980D01*
Y2746980D01*
X4247150D01*
G02X4119680Y2742980I-66152J75020D01*
G01X3965490D01*
G02X3892000Y2712980I-73490J75013D01*
G01X3852000D01*
G02Y2923020I0J105020D01*
G01X3892000D01*
G02X3965490Y2893020I0J-105013D01*
G01X4110570D01*
G02X4247150Y2897020I70429J-71020D01*
G01X4417980D01*
Y2922020D01*
X4618020D01*
Y2828070D01*
X4764020Y2682070D01*
Y2586070D01*
G37*
G36*
G01X670000Y1428480D02*
G02Y1678520I0J125020D01*
G01X730000D01*
G02Y1428480I0J-125020D01*
G01X670000D01*
G37*
G36*
G01Y1813480D02*
G02Y2055520I0J121020D01*
G01X730000D01*
G02Y1813480I0J-121020D01*
G01X670000D01*
G37*
G36*
G01Y2952480D02*
G02Y3202520I0J125020D01*
G01X730000D01*
G02Y2952480I0J-125020D01*
G01X670000D01*
G37*
G36*
G01Y3337480D02*
G02Y3579520I0J121020D01*
G01X730000D01*
G02Y3337480I0J-121020D01*
G01X670000D01*
G37*
G36*
G01X3090000Y1188980D02*
G02Y1399020I0J105020D01*
G01X3130000D01*
G02Y1188980I0J-105020D01*
G01X3090000D01*
G37*
G36*
G01X6470000Y1051480D02*
G02Y1293520I0J121020D01*
G01X6530000D01*
G02Y1051480I0J-121020D01*
G01X6470000D01*
G37*
G36*
G01Y1428480D02*
G02Y1678520I0J125020D01*
G01X6530000D01*
G02Y1428480I0J-125020D01*
G01X6470000D01*
G37*
G36*
G01Y2190480D02*
G02Y2440520I0J125020D01*
G01X6530000D01*
G02Y2190480I0J-125020D01*
G01X6470000D01*
G37*
G36*
G01Y2952480D02*
G02Y3202520I0J125020D01*
G01X6530000D01*
G02Y2952480I0J-125020D01*
G01X6470000D01*
G37*
G54D23*
X4518000Y3522000D03*
X4181000Y3072000D03*
X2141000Y1996000D03*
X2170000Y469000D03*
X1815000Y1935000D03*
X1805000Y410000D03*
G54D21*
X5908000Y3462000D03*
X5387000Y3460000D03*
G54D24*
X6663000Y3862000D03*
G54D22*
X4843000Y3417000D03*
X1428000Y1934000D03*
X1421000Y410000D03*
%LPD*%
G75*
G54D10*
X700000Y791500D03*
Y1172500D03*
Y1553500D03*
Y1934500D03*
Y2315500D03*
Y2696500D03*
Y3077500D03*
Y3458500D03*
X2555000Y537000D03*
Y791000D03*
Y1045000D03*
X2551000Y2319000D03*
Y2065000D03*
Y2573000D03*
X6500000Y1172500D03*
Y1553500D03*
Y1934500D03*
Y2315500D03*
Y2696500D03*
Y3077500D03*
G54D20*
G01X2555000Y791000D02*
X2000500D01*
X2000000Y791500D01*
X700000D01*
G01Y1172500D02*
X1274500D01*
X1275000Y1172000D01*
X1421000D01*
G01X700000Y2315500D02*
X1247500D01*
X1251000Y2319000D01*
X2551000D01*
G01X700000Y2696500D02*
X1281500D01*
X1282000Y2696000D01*
X1428000D01*
G01X1421000Y1172000D02*
X1805000D01*
G01X1428000Y2696000D02*
X1668000D01*
X1669000Y2697000D01*
X1815000D01*
G01X1805000Y1172000D02*
X2021000D01*
X2024000Y1169000D01*
X2170000D01*
G01X1815000Y2697000D02*
X1994000D01*
X1995000Y2696000D01*
X2141000D01*
G01X2170000Y1169000D02*
X2549000Y1548000D01*
X3110000D01*
G01X2141000Y2696000D02*
X2188000D01*
X2310000Y2818000D01*
X3110000D01*
G01Y1802000D02*
X3090000D01*
X2871000Y2021000D01*
Y2345000D01*
X3090000Y2564000D01*
X3110000D01*
G01Y1548000D02*
Y1802000D01*
G01Y2056000D02*
X3504000D01*
X3626000Y1934000D01*
Y1593000D01*
X3673000Y1546000D01*
X3870000D01*
X3872000Y1548000D01*
G01Y2310000D02*
X3672000D01*
X3418000Y2564000D01*
X3110000D01*
G01Y2818000D02*
X3437000D01*
X3691000Y2564000D01*
X3872000D01*
G01D02*
X4262000D01*
X4672000Y2154000D01*
Y1704000D01*
X4262000Y1294000D01*
X3872000D01*
G01Y1802000D02*
X4179000D01*
X4181000Y1800000D01*
G01X3872000Y2056000D02*
X4360000D01*
X4361000Y2055000D01*
X4507000D01*
G01X3872000Y2818000D02*
X4177000D01*
X4181000Y2822000D01*
G01Y1038000D02*
X5158000D01*
X5160000Y1040000D01*
X5910000D01*
G01X4181000Y2822000D02*
X4518000D01*
G01X4507000Y1293000D02*
X4713000D01*
X4950000Y1530000D01*
X5400000D01*
G01X4843000Y2401000D02*
X4689000Y2555000D01*
Y2651000D01*
X4518000Y2822000D01*
G01X5400000Y1657000D02*
Y1923000D01*
X5387000Y1936000D01*
G01X6500000Y2696500D02*
X5587500D01*
X5387000Y2496000D01*
Y1936000D01*
G01X5910000Y1167000D02*
Y1780000D01*
X5908000Y1782000D01*
Y1938000D01*
G01X6500000Y1934500D02*
X6240000D01*
X6236500Y1938000D01*
X5908000D01*
G54D11*
X1421000Y410000D03*
Y1172000D03*
X1428000Y1934000D03*
Y2696000D03*
X1805000Y410000D03*
Y1172000D03*
X1815000Y1935000D03*
Y2697000D03*
X2170000Y469000D03*
X2141000Y1996000D03*
X4181000Y1038000D03*
Y1800000D03*
Y2822000D03*
Y3072000D03*
X4507000Y1293000D03*
Y2055000D03*
X4518000Y3522000D03*
X4843000Y2401000D03*
Y3417000D03*
G54D12*
X2170000Y1169000D03*
X2141000Y2696000D03*
X4518000Y2822000D03*
G54D13*
X3110000Y1294000D03*
Y1548000D03*
Y1802000D03*
Y2056000D03*
Y2310000D03*
Y2564000D03*
X3872000Y1294000D03*
Y1548000D03*
Y1802000D03*
Y2056000D03*
Y2564000D03*
Y2310000D03*
Y2818000D03*
G54D14*
X3110000D03*
G54D15*
X5400000Y1530000D03*
Y1403000D03*
Y1657000D03*
X5910000Y913000D03*
Y1167000D03*
Y1040000D03*
G54D16*
X5387000Y1936000D03*
Y3460000D03*
X5908000Y1938000D03*
Y3462000D03*
G54D17*
G01X0Y0D02*
X7200000D01*
Y4250000D01*
X0D01*
Y0D01*
G54D18*
G01X6563000Y3802000D02*
Y3932000D01*
X6543000Y3906000D01*
G01Y3802000D02*
X6583000D01*
G01X6663000Y3762000D02*
X6463000D01*
Y3962000D01*
X6663000D01*
Y3762000D01*
G01X6863000D02*
X6663000D01*
Y3962000D01*
X6863000D01*
Y3762000D01*
G54D19*
G01X543900Y1808400D02*
X700000Y1934500D01*
G01D02*
X856100Y1808400D01*
G01X700000Y1934500D02*
X856100Y2060600D01*
G01X543900D02*
X700000Y1934500D01*
G01X543900Y3332400D02*
X700000Y3458500D01*
G01D02*
X856100Y3584600D01*
G01X543900D02*
X700000Y3458500D01*
G01D02*
X856100Y3332400D01*
G01X1344430Y333430D02*
X1421000Y410000D01*
G01D02*
X1497570Y486570D01*
G01X1344430D02*
X1421000Y410000D01*
G01D02*
X1497570Y333430D01*
G01X1351430Y1857430D02*
X1428000Y1934000D01*
G01D02*
X1504570Y1857430D01*
G01X1428000Y1934000D02*
X1504570Y2010570D01*
G01X1351430D02*
X1428000Y1934000D01*
G01X2398900Y410900D02*
X2555000Y537000D01*
G01X2398900Y663100D02*
X2555000Y537000D01*
G01X2394900Y1938900D02*
X2551000Y2065000D01*
G01X2394900Y2191100D02*
X2551000Y2065000D01*
G01X2555000Y537000D02*
X2711100Y663100D01*
G01X2555000Y537000D02*
X2711100Y410900D01*
G01X2551000Y2065000D02*
X2707100Y2191100D01*
G01X2551000Y2065000D02*
X2707100Y1938900D01*
G01X4766430Y3340430D02*
X4843000Y3417000D01*
G01D02*
X4919570Y3493570D01*
G01X4766430D02*
X4843000Y3417000D01*
G01D02*
X4919570Y3340430D01*
G01X5303360Y3376360D02*
X5387000Y3460000D01*
G01D02*
X5470640Y3543640D01*
G01X5303360D02*
X5387000Y3460000D01*
G01D02*
X5470640Y3376360D01*
G01X5824360Y3378360D02*
X5908000Y3462000D01*
G01X5824360Y3545640D02*
X5908000Y3462000D01*
G01D02*
X5991640Y3545640D01*
G01X5908000Y3462000D02*
X5991640Y3378360D01*
G01X6343900Y1046400D02*
X6500000Y1172500D01*
G01D02*
X6656100Y1298600D01*
G01X6343900D02*
X6500000Y1172500D01*
G01D02*
X6656100Y1046400D01*
M02*
